<svg xmlns="http://www.w3.org/2000/svg" viewBox="0 0 1200 1200" role="img" aria-labelledby="title desc">
  <title id="title">Logo Oficina Mecanica Ponto</title>
  <desc id="desc">Escudo azul com faixa central e nome Oficina Mecanica Ponto.</desc>

  <defs>
    <linearGradient id="shieldBlue" x1="0" y1="0" x2="1" y2="1">
      <stop offset="0" stop-color="#08245f" />
      <stop offset="0.5" stop-color="#0d3e8a" />
      <stop offset="1" stop-color="#072556" />
    </linearGradient>
    <linearGradient id="metal" x1="0" y1="0" x2="1" y2="1">
      <stop offset="0" stop-color="#f5f4ef" />
      <stop offset="0.5" stop-color="#dbd9d1" />
      <stop offset="1" stop-color="#f9f8f3" />
    </linearGradient>
    <filter id="softShadow" x="-20%" y="-20%" width="140%" height="160%">
      <feDropShadow dx="0" dy="12" stdDeviation="14" flood-color="#001238" flood-opacity="0.42" />
    </filter>
  </defs>

  <g filter="url(#softShadow)">
    <path d="M600 85 1045 250v395c0 258-190 414-445 470C345 1059 155 903 155 645V250Z" fill="url(#shieldBlue)" />
    <path d="M600 117 1010 266v372c0 238-176 381-410 434-234-53-410-196-410-434V266Z" fill="none" stroke="#f0efe8" stroke-width="16" />
    <path d="M600 148 975 283v350c0 216-158 348-375 400-217-52-375-184-375-400V283Z" fill="none" stroke="#bcc8ea" stroke-width="8" opacity="0.85" />
  </g>

  <path d="M220 520c50-68 97-83 156-83h448c59 0 106 15 156 83l-56 15c-24 6-34 18-34 44v45c0 26 10 38 34 44l56 15c-50 68-97 83-156 83H376c-59 0-106-15-156-83l56-15c24-6 34-18 34-44v-45c0-26-10-38-34-44Z" fill="url(#metal)" stroke="#d8d7d1" stroke-width="7" />

  <text x="600" y="384" text-anchor="middle" fill="#f4f3ed" font-family="Georgia, 'Times New Roman', serif" font-size="90" font-weight="700" letter-spacing="2">
    OFICINA MECANICA
  </text>

  <text x="600" y="638" text-anchor="middle" fill="#0a377f" font-family="Georgia, 'Times New Roman', serif" font-size="170" font-weight="700" letter-spacing="7">
    PONTO
  </text>

  <path d="M260 770c80-28 190-42 340-42s260 14 340 42v140c-80-22-190-33-340-33s-260 11-340 33Z" fill="#083574" stroke="#95a8dd" stroke-width="4" />
  <text x="600" y="825" text-anchor="middle" fill="#f0efe8" font-family="Georgia, 'Times New Roman', serif" font-size="66" font-weight="700">
    Conserto de Veiculos em Geral
  </text>
  <text x="600" y="892" text-anchor="middle" fill="#f0efe8" font-family="Georgia, 'Times New Roman', serif" font-size="66" font-weight="700">
    Prensa e Motor
  </text>

  <g fill="#f1f0ea">
    <path d="M600 194l16 40h42l-34 24 13 41-37-25-37 25 13-41-34-24h42Z" />
    <path d="M600 952l14 34h36l-29 21 11 36-32-22-32 22 11-36-29-21h36Z" />
  </g>

  <g fill="none" stroke="#f0efe8" stroke-width="7" stroke-linecap="round" opacity="0.95">
    <path d="M300 300c85 45 185 45 300 0" />
    <path d="M900 300c-85 45-185 45-300 0" />
    <path d="M305 958c86-52 183-52 295 0" />
    <path d="M895 958c-86-52-183-52-295 0" />
  </g>
</svg>
